<?xml version="1.0" encoding="UTF-8" ?>
<!DOCTYPE svg PUBLIC "-//W3C//DTD SVG 1.1//EN" "http://www.w3.org/Graphics/SVG/1.1/DTD/svg11.dtd">
<svg width="512pt" height="512pt" viewBox="0 0 512 512" version="1.1" xmlns="http://www.w3.org/2000/svg">
<path fill="#3b5998" opacity="1.00" d=" M 0.00 0.00 L 512.00 0.00 L 512.00 512.00 L 0.00 512.00 L 0.00 0.00 Z" />
<path fill="#ffffff" opacity="1.00" d=" M 87.24 222.09 C 93.42 216.89 102.12 218.84 109.53 218.51 C 109.51 222.77 109.52 227.03 109.52 231.29 C 106.00 231.67 101.46 230.04 98.66 232.80 C 97.87 236.05 98.34 239.44 98.22 242.75 C 102.02 242.77 105.81 242.76 109.61 242.75 C 109.23 247.00 108.73 251.24 108.31 255.49 C 104.94 255.56 101.58 255.56 98.21 255.51 C 98.25 267.90 98.19 280.28 98.25 292.66 C 93.09 292.75 87.92 292.81 82.77 292.61 C 82.88 280.30 82.78 267.99 82.82 255.68 C 80.30 255.56 77.78 255.50 75.26 255.48 C 75.25 251.24 75.24 246.99 75.31 242.75 C 77.82 242.76 80.32 242.77 82.83 242.79 C 82.89 235.81 81.71 227.47 87.24 222.09 Z" />
<path fill="#ffffff" opacity="1.00" d=" M 246.63 222.48 C 251.64 221.60 256.62 220.42 261.71 220.03 C 261.72 227.95 261.69 235.87 261.71 243.79 C 269.38 242.10 278.11 240.77 285.31 244.72 C 291.20 248.21 291.08 255.89 291.08 261.89 C 290.58 268.23 291.52 274.69 290.28 280.96 C 288.85 287.44 282.72 291.74 276.41 292.63 C 266.53 294.13 256.42 293.22 246.65 291.42 C 246.63 268.44 246.66 245.46 246.63 222.48 Z" />
<path fill="#ffffff" opacity="1.00" d=" M 393.69 222.50 C 398.68 221.65 403.62 220.47 408.67 220.08 C 408.72 234.69 408.51 249.30 408.79 263.91 C 409.89 262.97 411.00 261.99 411.72 260.72 C 415.20 255.13 418.71 249.56 422.24 244.00 C 422.70 242.91 424.01 242.98 424.98 242.91 C 429.68 242.84 434.38 242.97 439.08 242.90 C 434.36 251.15 428.69 258.84 424.09 267.15 C 428.74 275.79 434.15 284.03 438.99 292.58 C 433.59 292.65 428.19 292.62 422.79 292.59 C 418.98 286.25 415.26 279.86 411.42 273.55 C 410.73 272.41 409.74 271.49 408.81 270.58 C 408.50 277.90 408.71 285.24 408.69 292.57 C 403.69 292.65 398.70 292.64 393.70 292.56 C 393.72 269.21 393.74 245.86 393.69 222.50 Z" />
<path fill="#ffffff" opacity="1.00" d=" M 170.03 243.09 C 177.77 241.23 185.76 242.58 193.45 243.95 C 193.52 248.16 193.51 252.37 193.48 256.59 C 187.98 255.47 182.35 254.41 176.72 254.95 C 174.33 255.15 171.42 256.18 171.07 258.91 C 170.34 263.23 170.80 267.64 170.68 272.01 C 170.68 275.02 170.66 279.24 174.29 280.21 C 180.66 281.60 187.18 280.16 193.51 279.20 C 193.50 283.31 193.48 287.42 193.53 291.53 C 184.31 293.48 174.07 294.99 165.25 290.77 C 158.62 287.64 155.40 280.11 155.58 273.07 C 155.84 266.08 154.53 258.56 157.91 252.11 C 160.18 247.32 164.99 244.26 170.03 243.09 Z" />
<path fill="#ffffff" opacity="1.00" d=" M 203.35 247.43 C 208.18 242.56 215.54 241.97 222.02 242.21 C 228.32 242.38 235.38 244.50 238.70 250.31 C 242.67 256.95 241.12 265.00 241.41 272.34 C 231.96 272.42 222.49 272.03 213.05 272.55 C 213.52 275.51 213.84 279.57 217.47 280.28 C 225.03 281.46 232.71 280.24 240.22 279.21 C 240.21 283.30 240.22 287.39 240.21 291.48 C 232.63 293.21 224.78 293.81 217.02 293.28 C 210.66 292.81 203.99 289.91 200.88 284.06 C 197.23 277.64 198.54 270.03 198.29 262.99 C 198.05 257.46 199.09 251.35 203.35 247.43 Z" />
<path fill="#ffffff" opacity="1.00" d=" M 310.58 242.87 C 319.23 241.47 329.95 241.68 336.05 248.96 C 340.87 254.83 340.05 262.89 340.10 269.98 C 340.21 276.21 339.72 283.35 334.89 287.90 C 329.68 292.98 321.88 293.54 315.00 293.21 C 308.61 292.94 301.61 290.42 298.33 284.57 C 294.74 278.33 295.80 270.86 295.61 263.98 C 295.44 258.46 296.43 252.50 300.29 248.30 C 302.89 245.24 306.76 243.72 310.58 242.87 Z" />
<path fill="#ffffff" opacity="1.00" d=" M 359.54 242.84 C 367.01 241.68 375.41 241.70 381.93 246.04 C 387.38 249.75 389.22 256.71 388.89 262.99 C 388.51 270.55 390.32 279.04 385.67 285.68 C 381.62 291.68 373.83 293.47 367.00 293.31 C 359.92 293.44 351.77 291.62 347.71 285.26 C 343.74 279.26 344.69 271.77 344.58 264.96 C 344.37 259.82 344.98 254.38 347.91 250.00 C 350.53 246.06 354.99 243.77 359.54 242.84 Z" />
<path fill="#ffffff" opacity="1.00" d=" M 114.68 242.84 C 122.08 242.96 129.54 242.36 136.90 243.42 C 141.23 244.00 146.01 245.80 148.07 249.96 C 150.81 255.19 150.30 261.31 150.37 267.02 C 150.35 275.60 150.36 284.18 150.37 292.76 C 146.15 292.81 141.94 292.80 137.72 292.79 C 137.54 291.81 137.37 290.83 137.20 289.85 C 130.87 292.59 123.60 294.73 116.81 292.39 C 108.49 289.36 106.30 278.24 109.99 270.94 C 111.90 266.78 116.69 265.26 120.91 264.83 C 125.72 264.43 130.55 264.74 135.37 264.58 C 135.24 261.64 135.79 256.88 131.97 256.11 C 125.87 254.91 119.60 255.77 113.44 255.45 C 113.86 251.25 114.37 247.05 114.68 242.84 Z" />
<path fill="#3b5998" opacity="1.00" d=" M 214.51 255.49 C 217.20 252.85 221.99 252.78 224.89 255.11 C 226.64 257.00 226.24 259.83 226.43 262.20 C 222.12 262.23 217.81 262.21 213.50 262.28 C 213.14 259.99 213.08 257.44 214.51 255.49 Z" />
<path fill="#3b5998" opacity="1.00" d=" M 261.71 256.97 C 265.28 255.23 269.55 254.37 273.38 255.65 C 277.08 258.09 275.88 263.29 276.13 267.05 C 275.87 271.33 277.17 277.27 272.81 279.93 C 269.34 281.48 265.36 280.88 261.71 280.50 C 261.74 272.65 261.72 264.81 261.71 256.97 Z" />
<path fill="#3b5998" opacity="1.00" d=" M 312.96 255.97 C 316.95 253.42 324.57 254.40 325.02 260.08 C 325.32 266.16 325.50 272.32 324.41 278.34 C 321.08 281.55 314.88 281.99 311.69 278.41 C 309.77 274.59 310.81 270.13 310.53 266.03 C 310.67 262.65 309.80 258.27 312.96 255.97 Z" />
<path fill="#3b5998" opacity="1.00" d=" M 363.31 255.43 C 366.70 254.27 371.80 254.55 373.34 258.40 C 374.51 263.87 374.24 269.59 373.78 275.13 C 373.76 282.34 361.25 282.88 360.00 276.11 C 359.45 271.40 359.82 266.63 359.75 261.90 C 359.63 259.32 360.57 256.27 363.31 255.43 Z" />
<path fill="#3b5998" opacity="1.00" d=" M 123.80 276.07 C 127.19 273.91 131.49 275.16 135.27 274.90 C 135.29 276.67 135.31 278.44 135.36 280.21 C 132.53 281.87 129.22 283.12 125.91 282.40 C 123.41 281.31 123.14 278.39 123.80 276.07 Z" />
</svg>
