<?xml version="1.0" encoding="UTF-8" ?>
<!DOCTYPE svg PUBLIC "-//W3C//DTD SVG 1.1//EN" "http://www.w3.org/Graphics/SVG/1.1/DTD/svg11.dtd">
<svg width="512pt" height="512pt" viewBox="0 0 512 512" version="1.1" xmlns="http://www.w3.org/2000/svg">
<path fill="#3b3b3b" opacity="1.00" d=" M 0.00 0.00 L 512.00 0.00 L 512.00 512.00 L 0.00 512.00 L 0.00 0.00 Z" />
<path fill="#ffffff" opacity="1.00" d=" M 311.41 148.09 C 314.38 147.18 317.51 147.36 320.58 147.40 C 325.78 157.02 325.01 168.47 323.46 178.92 C 322.78 181.56 325.50 183.20 326.75 185.16 C 335.57 195.58 339.03 209.56 338.54 223.00 C 338.34 230.95 337.67 238.97 335.49 246.65 C 355.38 247.04 375.38 247.53 395.00 251.20 C 396.47 251.25 397.36 252.02 397.66 253.49 C 383.50 251.46 369.29 249.45 354.95 249.28 C 348.27 249.32 341.59 248.61 334.92 249.14 C 334.36 250.66 333.78 252.18 333.21 253.70 C 339.07 254.58 345.01 254.21 350.90 254.78 C 365.12 256.10 379.37 257.94 393.18 261.71 C 394.62 262.36 397.33 262.25 396.68 264.77 C 375.76 258.78 353.95 256.43 332.25 256.10 C 328.14 265.45 320.31 272.89 310.99 276.98 C 300.73 281.68 289.41 283.24 278.32 284.68 C 280.94 286.65 283.60 288.74 285.33 291.59 C 288.18 296.20 288.89 301.72 289.38 307.02 C 290.20 319.65 289.31 332.32 289.62 344.97 C 290.27 351.44 298.16 352.77 300.34 358.18 C 291.58 361.41 279.10 357.69 276.62 347.86 C 275.86 338.99 276.64 330.04 275.99 321.16 C 275.67 316.26 276.56 311.06 274.52 306.44 C 274.07 305.14 272.81 304.52 271.71 303.88 C 271.60 317.60 271.72 331.33 271.65 345.05 C 271.60 348.04 271.92 351.11 273.22 353.85 C 274.55 356.80 276.99 359.07 278.39 361.98 C 278.96 363.91 276.93 365.81 275.04 365.20 C 270.55 364.27 266.45 361.91 262.99 358.96 C 259.07 355.47 258.33 349.93 257.80 345.01 C 257.20 335.67 258.06 326.31 257.65 316.97 C 257.56 312.09 257.63 307.20 257.64 302.33 C 256.46 302.37 255.29 302.41 254.12 302.46 C 254.23 313.65 254.29 324.85 254.15 336.04 C 253.51 342.01 253.93 348.20 251.98 353.97 C 249.30 359.71 243.62 364.01 237.36 365.02 C 235.92 365.36 234.54 364.63 233.17 364.35 C 232.73 360.36 237.35 358.82 238.12 355.20 C 239.94 348.64 239.28 341.73 239.56 335.00 C 239.70 324.58 239.93 314.14 239.45 303.72 C 236.57 306.27 235.40 310.18 235.38 313.93 C 235.28 324.61 235.41 335.30 235.34 345.99 C 235.42 349.97 232.75 353.41 229.54 355.49 C 224.22 358.96 217.27 360.67 211.19 358.25 C 212.40 354.06 217.04 352.76 219.64 349.64 C 222.29 347.20 222.45 343.39 222.31 340.03 C 221.99 333.20 222.27 326.36 222.05 319.53 C 211.01 321.29 198.10 321.72 189.23 313.75 C 181.67 307.55 180.82 296.81 173.82 290.16 C 170.90 286.64 165.72 285.34 163.99 280.86 C 170.25 277.23 178.25 280.07 182.74 285.23 C 188.83 291.09 192.33 300.52 201.20 302.80 C 208.50 304.35 216.74 304.34 223.32 300.39 C 224.00 294.07 227.93 288.53 232.88 284.74 C 217.37 283.15 201.17 279.43 189.02 269.08 C 184.61 265.32 180.96 260.76 178.07 255.74 C 163.63 256.46 149.14 257.36 134.94 260.24 C 128.28 261.52 121.71 263.24 115.12 264.85 C 115.12 264.31 115.13 263.24 115.13 262.70 C 130.47 258.70 146.11 255.73 161.94 254.56 C 167.01 254.40 172.06 253.96 177.12 253.67 C 176.43 252.13 175.77 250.59 175.12 249.04 C 154.78 249.21 134.38 250.17 114.30 253.51 C 114.21 251.31 116.47 251.27 117.94 250.87 C 136.60 247.95 155.51 247.42 174.36 246.68 C 170.37 235.26 169.88 222.95 170.72 210.99 C 171.60 200.61 177.06 191.36 183.80 183.68 C 180.74 171.84 180.74 158.87 186.01 147.63 C 199.40 147.29 211.39 154.60 222.06 161.90 C 242.49 156.03 264.44 156.48 285.15 160.65 C 293.53 155.77 301.99 150.72 311.41 148.09 Z" />
<path fill="#3b3b3b" opacity="1.00" d=" M 283.64 211.99 C 291.32 211.08 299.47 212.56 306.00 216.82 C 313.88 222.03 317.56 231.79 317.72 240.95 C 318.09 249.59 316.14 258.75 310.35 265.42 C 304.07 272.84 294.33 276.13 284.99 277.45 C 270.21 278.97 255.32 278.49 240.49 278.27 C 228.30 277.87 215.40 276.09 205.26 268.77 C 190.84 258.54 187.92 235.74 199.11 222.10 C 204.77 215.00 214.07 211.71 222.96 211.70 C 237.62 212.60 252.33 213.83 267.03 213.09 C 272.57 212.66 278.12 212.56 283.64 211.99 Z" />
<path fill="#ffffff" opacity="1.00" d=" M 217.43 230.77 C 219.50 229.32 222.34 229.14 224.46 230.58 C 228.57 233.18 230.01 238.40 229.75 243.02 C 229.72 247.45 227.86 252.59 223.57 254.51 C 219.72 255.93 215.81 253.45 214.20 249.97 C 211.19 243.86 211.82 235.18 217.43 230.77 Z" />
<path fill="#ffffff" opacity="1.00" d=" M 288.42 230.48 C 291.37 228.55 295.42 229.92 297.31 232.68 C 301.48 238.45 301.49 247.30 296.62 252.66 C 293.97 255.89 288.27 255.54 286.01 252.02 C 281.26 245.79 281.68 235.13 288.42 230.48 Z" />
</svg>
