<?xml version="1.0" encoding="UTF-8" ?>
<!DOCTYPE svg PUBLIC "-//W3C//DTD SVG 1.1//EN" "http://www.w3.org/Graphics/SVG/1.1/DTD/svg11.dtd">
<svg width="512pt" height="512pt" viewBox="0 0 512 512" version="1.1" xmlns="http://www.w3.org/2000/svg">
<path fill="#e04c40" opacity="1.00" d=" M 0.00 0.00 L 512.00 0.00 L 512.00 512.00 L 0.00 512.00 L 0.00 0.00 Z" />
<path fill="#ffffff" opacity="1.00" d=" M 118.98 139.63 C 120.31 139.50 121.65 139.41 122.98 139.38 C 209.35 139.41 295.71 139.38 382.07 139.39 C 386.00 139.41 389.95 139.22 393.86 139.71 C 387.72 143.52 382.11 148.11 376.19 152.25 C 339.22 179.17 302.53 206.48 265.46 233.26 C 262.58 235.38 259.55 237.30 256.88 239.69 C 210.96 206.27 165.04 172.85 118.98 139.63 Z" />
<path fill="#ffffff" opacity="1.00" d=" M 130.71 200.07 C 132.65 200.57 133.99 202.12 135.55 203.25 C 172.92 231.53 211.71 257.86 249.44 285.65 C 251.67 287.43 254.19 288.83 256.86 289.83 C 258.48 289.27 259.76 288.06 261.18 287.16 C 299.41 260.84 336.70 233.20 374.93 206.90 C 377.16 205.18 379.21 203.20 381.72 201.86 C 381.98 259.13 381.68 316.40 381.86 373.67 C 308.56 373.72 235.26 373.68 161.97 373.69 C 151.57 373.56 141.15 373.95 130.76 373.49 C 130.79 315.69 130.90 257.88 130.71 200.07 Z" />
</svg>
