<?xml version="1.0" encoding="UTF-8" ?>
<!DOCTYPE svg PUBLIC "-//W3C//DTD SVG 1.1//EN" "http://www.w3.org/Graphics/SVG/1.1/DTD/svg11.dtd">
<svg width="512pt" height="512pt" viewBox="0 0 512 512" version="1.1" xmlns="http://www.w3.org/2000/svg">
<path fill="#006699" opacity="1.00" d=" M 0.00 0.00 L 512.00 0.00 L 512.00 512.00 L 0.00 512.00 L 0.00 0.00 Z" />
<path fill="#ffffff" opacity="1.00" d=" M 344.29 203.14 C 345.77 202.52 347.40 202.52 348.99 202.48 C 376.32 202.53 403.66 202.48 430.99 202.51 C 436.95 202.36 442.36 208.00 441.90 213.95 C 441.85 241.66 441.88 269.38 441.88 297.10 C 441.89 302.72 436.70 307.78 431.09 307.76 C 403.38 307.76 375.68 307.76 347.97 307.76 C 342.75 307.86 337.39 303.48 337.39 298.08 C 337.38 269.69 337.41 241.30 337.38 212.91 C 337.02 208.52 340.25 204.51 344.29 203.14 Z" />
<path fill="#006699" opacity="1.00" d=" M 362.48 223.64 C 368.01 221.83 374.95 226.97 372.87 233.00 C 370.90 239.97 359.88 240.56 356.95 234.06 C 354.60 229.76 357.94 224.47 362.48 223.64 Z" />
<path fill="#ffffff" opacity="1.00" d=" M 70.25 223.88 C 74.97 223.87 79.70 223.88 84.43 223.87 C 84.45 240.55 84.45 257.23 84.42 273.90 C 93.03 274.41 101.66 274.02 110.28 274.14 C 110.26 278.24 110.26 282.34 110.28 286.44 C 96.92 286.41 83.56 286.46 70.20 286.41 C 70.31 265.57 70.22 244.72 70.25 223.88 Z" />
<path fill="#ffffff" opacity="1.00" d=" M 118.41 224.68 C 123.15 222.14 130.95 224.88 130.47 231.02 C 130.64 237.36 122.09 240.43 117.43 236.77 C 112.93 234.09 113.43 226.54 118.41 224.68 Z" />
<path fill="#ffffff" opacity="1.00" d=" M 186.40 223.85 C 191.08 223.81 195.76 223.82 200.44 223.82 C 200.50 235.98 200.35 248.15 200.52 260.32 C 205.38 254.76 209.06 248.28 213.82 242.64 C 219.57 242.11 225.39 242.58 231.17 242.45 C 225.37 248.18 220.05 254.36 214.36 260.20 C 220.70 269.03 227.13 277.81 233.75 286.44 C 227.81 286.51 221.87 286.44 215.93 286.49 C 211.97 280.43 208.45 274.08 204.23 268.20 C 202.86 270.34 200.19 272.14 200.43 274.97 C 200.38 278.81 200.48 282.64 200.47 286.49 C 195.79 286.46 191.11 286.46 186.43 286.50 C 186.41 265.61 186.47 244.73 186.40 223.85 Z" />
<path fill="#ffffff" opacity="1.00" d=" M 309.87 223.85 C 314.67 223.86 319.47 223.85 324.27 223.87 C 324.31 244.74 324.19 265.62 324.38 286.49 C 320.24 286.42 316.10 286.45 311.96 286.43 C 311.80 284.26 311.64 282.09 311.43 279.93 C 308.80 282.44 306.29 285.38 302.66 286.41 C 295.47 288.96 286.88 286.90 281.85 281.11 C 276.38 274.90 275.37 265.88 276.99 258.02 C 278.48 250.75 283.92 244.19 291.23 242.31 C 297.60 240.41 304.92 241.70 309.80 246.36 C 309.93 238.86 309.82 231.35 309.87 223.85 Z" />
<path fill="#ffffff" opacity="1.00" d=" M 234.73 248.87 C 240.70 241.93 250.93 240.13 259.49 242.38 C 264.28 243.62 268.31 247.04 270.58 251.40 C 273.31 256.64 273.74 262.70 273.26 268.51 C 262.94 268.89 252.60 268.51 242.27 268.71 C 242.99 271.28 244.09 273.99 246.61 275.29 C 253.42 279.11 261.63 277.46 268.85 275.84 C 269.46 278.78 270.12 281.72 270.81 284.65 C 260.23 288.11 247.62 289.37 237.76 283.24 C 226.65 275.80 226.36 258.47 234.73 248.87 Z" />
<path fill="#006699" opacity="1.00" d=" M 401.53 243.76 C 407.54 242.27 414.79 242.99 419.14 247.87 C 423.89 252.57 424.06 259.73 423.89 265.98 C 423.83 272.94 424.51 279.91 423.85 286.86 C 418.98 286.79 414.09 287.15 409.24 286.70 C 408.06 278.21 409.35 269.26 408.63 260.61 C 408.40 257.86 406.29 255.94 404.17 254.47 C 399.64 253.86 394.63 256.16 393.80 261.01 C 393.43 269.61 393.68 278.24 393.71 286.85 C 388.73 286.91 383.75 286.93 378.77 286.81 C 378.61 272.67 379.10 258.51 378.66 244.37 C 383.65 244.10 388.67 243.41 393.66 244.13 C 393.66 245.79 393.67 247.46 393.70 249.13 C 396.10 247.10 398.37 244.61 401.53 243.76 Z" />
<path fill="#ffffff" opacity="1.00" d=" M 115.23 244.45 C 119.99 244.43 124.75 244.43 129.50 244.44 C 129.41 258.45 129.48 272.47 129.46 286.48 C 124.71 286.45 119.97 286.50 115.22 286.40 C 115.37 272.42 115.34 258.43 115.23 244.45 Z" />
<path fill="#ffffff" opacity="1.00" d=" M 135.56 244.44 C 140.30 244.41 145.04 244.41 149.78 244.44 C 149.72 246.42 149.66 248.40 149.62 250.39 C 151.90 248.16 154.00 245.46 157.12 244.39 C 160.58 243.08 164.34 243.57 167.94 243.71 C 174.76 245.58 179.46 252.04 179.72 259.02 C 179.92 268.17 179.73 277.33 179.80 286.48 C 175.04 286.45 170.28 286.47 165.53 286.46 C 165.57 278.34 165.58 270.23 165.55 262.11 C 165.57 259.11 164.00 255.95 161.17 254.69 C 155.62 252.47 149.16 257.05 149.69 263.06 C 149.67 270.86 149.66 278.66 149.74 286.46 C 145.02 286.47 140.31 286.44 135.60 286.51 C 135.53 272.48 135.87 258.46 135.56 244.44 Z" />
<path fill="#006699" opacity="1.00" d=" M 357.22 286.80 C 357.41 272.44 356.87 258.04 357.49 243.69 C 358.99 243.80 360.50 243.87 362.01 243.90 C 365.44 243.81 368.86 243.98 372.27 244.24 C 372.23 258.43 372.36 272.63 372.20 286.83 C 367.21 286.91 362.21 286.94 357.22 286.80 Z" />
<path fill="#006699" opacity="1.00" d=" M 246.14 252.12 C 249.74 248.88 256.47 249.51 258.81 253.99 C 259.92 255.65 259.99 257.68 260.14 259.61 C 254.12 259.56 248.10 259.75 242.08 259.47 C 243.03 256.85 243.77 253.87 246.14 252.12 Z" />
<path fill="#006699" opacity="1.00" d=" M 296.45 252.71 C 299.99 250.86 304.71 251.44 307.44 254.43 C 311.21 258.35 309.64 264.25 309.73 269.12 C 309.41 276.37 299.44 279.31 294.48 274.60 C 288.50 268.88 289.12 257.02 296.45 252.71 Z" />
</svg>
