<?xml version="1.0" encoding="UTF-8" ?>
<!DOCTYPE svg PUBLIC "-//W3C//DTD SVG 1.1//EN" "http://www.w3.org/Graphics/SVG/1.1/DTD/svg11.dtd">
<svg width="512pt" height="512pt" viewBox="0 0 512 512" version="1.1" xmlns="http://www.w3.org/2000/svg">
<path fill="#00aeef" opacity="1.00" d=" M 0.00 0.00 L 512.00 0.00 L 512.00 512.00 L 0.00 512.00 L 0.00 0.00 Z" />
<path fill="#ffffff" opacity="1.00" d=" M 141.55 118.31 C 202.75 118.26 263.95 118.29 325.15 118.30 C 327.93 129.73 330.88 141.13 333.65 152.57 C 333.97 154.16 335.90 154.33 337.18 154.78 C 347.98 157.40 358.73 160.25 369.55 162.81 C 369.69 239.34 369.57 315.88 369.61 392.41 C 293.60 392.38 217.58 392.41 141.57 392.39 C 141.58 301.03 141.62 209.67 141.55 118.31 Z" />
<path fill="#ffffff" opacity="1.00" d=" M 329.49 121.84 C 341.59 134.14 353.78 146.35 366.04 158.48 C 356.14 156.60 346.41 153.71 336.61 151.33 C 334.26 141.50 331.37 131.76 329.49 121.84 Z" />
<path fill="#00aeef" opacity="1.00" d=" M 174.55 155.70 C 197.42 155.76 220.29 155.69 243.16 155.73 C 243.17 159.24 243.17 162.74 243.17 166.25 C 220.29 166.28 197.41 166.23 174.54 166.27 C 174.52 162.75 174.52 159.22 174.55 155.70 Z" />
<path fill="#00aeef" opacity="1.00" d=" M 253.51 155.71 C 281.13 155.75 308.75 155.68 336.38 155.75 C 336.42 183.58 336.39 211.42 336.39 239.26 C 308.76 239.23 281.13 239.25 253.50 239.25 C 253.50 211.41 253.48 183.56 253.51 155.71 Z" />
<path fill="#00aeef" opacity="1.00" d=" M 174.53 180.22 C 197.41 180.28 220.29 180.21 243.18 180.25 C 243.17 183.63 243.13 187.01 243.24 190.38 C 220.34 190.74 197.42 190.41 174.52 190.54 C 174.53 187.10 174.53 183.66 174.53 180.22 Z" />
<path fill="#00aeef" opacity="1.00" d=" M 174.51 204.49 C 197.40 204.53 220.30 204.47 243.19 204.52 C 243.17 207.94 243.17 211.36 243.17 214.78 C 220.29 214.86 197.41 214.78 174.53 214.82 C 174.53 211.37 174.53 207.93 174.51 204.49 Z" />
<path fill="#00aeef" opacity="1.00" d=" M 174.54 228.77 C 197.42 228.81 220.29 228.76 243.16 228.80 C 243.17 232.27 243.17 235.75 243.17 239.23 C 220.29 239.27 197.41 239.23 174.54 239.26 C 174.52 235.76 174.52 232.27 174.54 228.77 Z" />
<path fill="#00aeef" opacity="1.00" d=" M 174.61 253.17 C 228.54 253.29 282.47 253.22 336.40 253.20 C 336.39 256.64 336.39 260.08 336.42 263.52 C 282.45 263.50 228.48 263.51 174.51 263.51 C 174.55 260.06 174.46 256.61 174.61 253.17 Z" />
<path fill="#00aeef" opacity="1.00" d=" M 174.52 277.22 C 228.48 277.27 282.44 277.28 336.40 277.22 C 336.40 280.65 336.40 284.08 336.40 287.51 C 282.44 287.48 228.48 287.50 174.52 287.51 C 174.53 284.08 174.53 280.65 174.52 277.22 Z" />
<path fill="#00aeef" opacity="1.00" d=" M 174.50 301.50 C 228.47 301.51 282.45 301.52 336.42 301.50 C 336.39 304.86 336.33 308.23 336.52 311.59 C 282.52 311.91 228.49 311.67 174.48 311.71 C 174.54 308.30 174.54 304.90 174.50 301.50 Z" />
<path fill="#00aeef" opacity="1.00" d=" M 174.54 325.79 C 228.49 325.79 282.44 325.80 336.39 325.78 C 336.40 329.27 336.41 332.77 336.38 336.26 C 282.44 336.24 228.49 336.24 174.55 336.27 C 174.51 332.77 174.52 329.28 174.54 325.79 Z" />
<path fill="#00aeef" opacity="1.00" d=" M 174.48 350.27 C 228.48 350.27 282.49 350.13 336.48 350.34 C 336.36 353.73 336.38 357.13 336.42 360.53 C 282.45 360.51 228.48 360.51 174.52 360.53 C 174.54 357.11 174.54 353.69 174.48 350.27 Z" />
</svg>
