<?xml version="1.0" encoding="UTF-8" ?>
<!DOCTYPE svg PUBLIC "-//W3C//DTD SVG 1.1//EN" "http://www.w3.org/Graphics/SVG/1.1/DTD/svg11.dtd">
<svg width="512pt" height="512pt" viewBox="0 0 512 512" version="1.1" xmlns="http://www.w3.org/2000/svg">
<path fill="#19bfe5" opacity="1.00" d=" M 0.00 0.00 L 512.00 0.00 L 512.00 512.00 L 0.00 512.00 L 0.00 0.00 Z" />
<path fill="#ffffff" opacity="1.00" d=" M 230.09 218.74 C 235.99 218.72 241.88 218.72 247.78 218.74 C 247.74 223.00 247.74 227.27 247.79 231.54 C 241.89 231.56 235.98 231.56 230.08 231.53 C 230.14 227.27 230.14 223.00 230.09 218.74 Z" />
<path fill="#ffffff" opacity="1.00" d=" M 79.71 222.27 C 99.37 222.28 119.04 222.25 138.71 222.29 C 138.68 226.80 138.68 231.31 138.71 235.82 C 131.84 235.85 124.97 235.82 118.11 235.84 C 118.15 254.60 118.12 273.36 118.12 292.13 C 112.16 292.15 106.21 292.14 100.25 292.14 C 100.28 273.37 100.25 254.61 100.26 235.84 C 93.41 235.82 86.56 235.84 79.71 235.83 C 79.71 231.31 79.71 226.79 79.71 222.27 Z" />
<path fill="#ffffff" opacity="1.00" d=" M 260.78 224.43 C 266.37 224.41 271.95 224.41 277.54 224.43 C 277.51 229.41 277.53 234.40 277.51 239.38 C 282.75 239.39 287.99 239.36 293.23 239.41 C 293.22 243.20 293.22 246.99 293.22 250.78 C 287.99 250.81 282.75 250.79 277.51 250.80 C 277.55 258.54 277.49 266.28 277.52 274.02 C 277.50 276.66 278.07 279.94 280.73 281.20 C 284.78 283.03 289.18 281.33 293.27 280.61 C 293.28 284.48 293.27 288.35 293.28 292.22 C 285.41 293.89 276.81 294.68 269.13 291.82 C 263.57 289.76 261.07 283.63 260.91 278.09 C 260.61 269.00 260.85 259.90 260.81 250.81 C 258.70 250.80 256.60 250.79 254.50 250.78 C 254.51 246.99 254.51 243.19 254.49 239.40 C 256.60 239.39 258.71 239.37 260.83 239.37 C 260.77 234.39 260.79 229.41 260.78 224.43 Z" />
<path fill="#ffffff" opacity="1.00" d=" M 300.70 224.43 C 306.29 224.41 311.88 224.41 317.48 224.43 C 317.45 229.42 317.46 234.40 317.44 239.38 C 322.70 239.39 327.97 239.35 333.24 239.43 C 333.22 243.20 333.22 246.98 333.23 250.76 C 327.97 250.83 322.71 250.80 317.45 250.80 C 317.48 258.55 317.43 266.30 317.45 274.05 C 317.42 276.72 318.04 279.98 320.71 281.25 C 324.78 282.77 329.14 281.38 333.22 280.63 C 333.22 284.49 333.22 288.35 333.23 292.21 C 327.35 293.75 321.22 293.85 315.19 293.41 C 311.04 292.88 306.60 291.47 303.99 287.99 C 301.20 284.29 300.74 279.46 300.70 274.99 C 300.72 266.93 300.69 258.87 300.73 250.81 C 298.64 250.80 296.56 250.79 294.48 250.80 C 294.48 247.00 294.48 243.20 294.46 239.41 C 296.55 239.39 298.65 239.38 300.74 239.37 C 300.69 234.39 300.71 229.41 300.70 224.43 Z" />
<path fill="#ffffff" opacity="1.00" d=" M 344.48 244.41 C 351.35 238.19 361.32 237.10 370.16 238.35 C 376.70 239.21 382.96 243.13 385.74 249.25 C 388.95 255.45 388.58 262.56 388.55 269.32 C 376.46 269.38 364.37 269.23 352.28 269.39 C 352.99 272.88 354.09 276.74 357.37 278.67 C 363.16 282.20 370.58 281.95 376.88 280.05 C 380.67 278.98 383.79 276.29 387.68 275.48 C 387.70 280.08 387.65 284.69 387.70 289.30 C 377.42 293.89 365.62 294.92 354.70 292.23 C 346.76 290.28 339.72 284.41 337.33 276.46 C 334.08 265.63 335.72 252.27 344.48 244.41 Z" />
<path fill="#ffffff" opacity="1.00" d=" M 139.39 239.42 C 145.24 239.34 151.10 239.40 156.96 239.38 C 159.66 250.86 162.30 262.36 164.94 273.85 C 168.29 262.38 171.53 250.88 174.83 239.40 C 179.74 239.37 184.65 239.38 189.56 239.38 C 192.80 250.83 195.65 262.38 199.01 273.80 C 201.46 262.30 204.19 250.86 206.79 239.39 C 212.51 239.39 218.23 239.35 223.94 239.42 C 218.67 256.97 213.69 274.62 208.44 292.17 C 202.54 292.12 196.66 292.15 190.77 292.14 C 187.82 280.97 184.59 269.87 181.80 258.66 C 178.27 269.70 175.68 281.02 172.41 292.15 C 166.53 292.14 160.64 292.14 154.76 292.14 C 149.55 274.59 144.65 256.95 139.39 239.42 Z" />
<path fill="#ffffff" opacity="1.00" d=" M 230.64 239.40 C 236.17 239.37 241.70 239.37 247.24 239.40 C 247.21 256.98 247.23 274.56 247.23 292.14 C 241.70 292.15 236.18 292.15 230.65 292.14 C 230.65 274.56 230.68 256.98 230.64 239.40 Z" />
<path fill="#ffffff" opacity="1.00" d=" M 396.73 239.40 C 402.27 239.37 407.81 239.37 413.35 239.40 C 413.33 241.88 413.32 244.37 413.31 246.86 C 418.49 242.07 425.14 238.32 432.45 239.35 C 432.43 244.14 432.43 248.93 432.44 253.72 C 426.01 252.69 419.33 252.88 413.32 255.61 C 413.34 267.78 413.32 279.96 413.33 292.14 C 407.80 292.15 402.27 292.15 396.74 292.14 C 396.74 274.56 396.76 256.98 396.73 239.40 Z" />
<path fill="#19bfe5" opacity="1.00" d=" M 355.03 252.05 C 358.10 248.40 363.91 247.71 367.99 249.97 C 371.22 251.93 371.78 255.93 372.40 259.32 C 365.69 259.36 358.98 259.36 352.27 259.32 C 352.88 256.80 353.27 254.07 355.03 252.05 Z" />
</svg>
